<?xml version="1.0" standalone="no"?>
<!DOCTYPE svg PUBLIC "-//W3C//DTD SVG 20010904//EN"
 "http://www.w3.org/TR/2001/REC-SVG-20010904/DTD/svg10.dtd">
<svg version="1.0" xmlns="http://www.w3.org/2000/svg"
 width="1118.000000pt" height="254.000000pt" viewBox="0 0 1118.000000 254.000000"
 preserveAspectRatio="xMidYMid meet">

<g transform="translate(0.000000,254.000000) scale(0.100000,-0.100000)"
fill="#000000" stroke="none">
<path d="M127 2193 c-4 -3 -7 -46 -7 -94 l0 -87 153 -6 c83 -3 287 -7 452 -8
l300 -3 0 100 0 100 -446 3 c-245 1 -449 -1 -452 -5z"/>
<path d="M1172 2188 c-9 -9 -12 -122 -12 -445 l0 -433 100 0 99 0 1 429 c0
235 -2 436 -6 445 -5 13 -22 16 -88 16 -50 0 -87 -5 -94 -12z"/>
<path d="M1517 2194 c-4 -4 -7 -205 -7 -446 l0 -438 95 0 95 0 -2 443 -3 442
-85 3 c-47 1 -89 0 -93 -4z"/>
<path d="M1854 2189 c-3 -5 -2 -205 2 -444 l7 -435 94 0 93 0 0 439 0 439 -47
6 c-64 8 -142 6 -149 -5z"/>
<path d="M127 1843 c-4 -3 -7 -48 -7 -100 l0 -93 328 1 c180 1 380 4 445 8
l118 6 4 93 4 92 -443 0 c-244 0 -446 -3 -449 -7z"/>
<path d="M4650 1820 c-30 -4 -106 -8 -167 -9 l-113 -1 0 -25 c0 -24 3 -25 59
-25 l58 0 8 -221 c4 -121 4 -223 1 -227 -4 -3 -19 4 -36 16 -16 12 -54 31 -85
43 -78 29 -208 24 -280 -11 -90 -44 -192 -166 -210 -252 -4 -18 -12 -39 -19
-47 -7 -9 -11 -65 -11 -150 0 -115 4 -147 23 -206 43 -132 116 -211 233 -254
59 -22 173 -29 184 -11 3 6 13 10 22 10 27 0 83 32 132 76 27 24 51 41 55 37
3 -3 6 -30 6 -60 l0 -53 195 0 195 0 0 24 c0 22 -5 25 -52 31 -29 4 -60 5 -68
3 -13 -3 -15 40 -15 337 0 187 2 484 5 660 l5 320 -35 1 c-19 1 -60 -2 -90 -6z
m-230 -530 c76 -39 74 -30 80 -339 6 -295 3 -320 -43 -369 -29 -32 -48 -41
-103 -51 -73 -14 -132 17 -170 91 -53 101 -71 369 -35 506 14 56 63 161 74
162 1 0 20 7 42 15 46 16 103 11 155 -15z"/>
<path d="M10180 1827 c-6 -6 -158 -17 -227 -17 -50 0 -53 -2 -53 -25 0 -24 3
-25 53 -25 l54 0 6 -197 c4 -108 7 -390 7 -627 l0 -431 -57 0 c-55 0 -58 -1
-61 -26 l-3 -26 260 -2 c252 -1 260 -1 271 19 18 33 3 42 -69 38 l-66 -3 -3
177 -2 176 30 22 c17 12 32 21 34 19 1 -2 51 -89 111 -194 59 -104 118 -205
132 -223 l24 -32 177 2 c172 3 177 4 180 24 3 19 -3 23 -45 29 -27 3 -54 9
-59 13 -6 4 -52 88 -104 187 -51 99 -96 185 -100 190 -4 6 -21 35 -37 65 -17
30 -39 70 -49 87 l-19 33 114 114 114 115 61 8 c53 7 61 11 64 31 l3 22 -179
0 c-99 0 -187 -3 -196 -6 -9 -3 -16 -15 -16 -25 0 -17 8 -19 70 -19 52 0 70
-3 70 -13 0 -55 -355 -409 -376 -376 -4 6 -3 152 2 323 5 171 9 370 9 441 l0
130 -60 3 c-33 2 -63 1 -65 -1z"/>
<path d="M6501 1809 c-114 -20 -227 -103 -286 -210 -28 -50 -30 -61 -30 -159
0 -92 3 -111 25 -155 40 -79 114 -144 237 -207 59 -31 126 -61 148 -68 63 -20
170 -82 215 -123 54 -49 80 -112 80 -192 0 -115 -53 -179 -171 -204 -110 -23
-274 34 -360 126 -47 50 -104 155 -115 212 -7 33 -18 44 -46 46 -17 2 -18 -14
-18 -212 l0 -214 28 3 c21 2 28 9 30 31 3 27 27 37 48 18 30 -28 232 -71 335
-71 118 0 268 40 333 90 60 46 109 100 137 152 29 56 34 74 37 156 6 129 -18
193 -105 279 -50 49 -89 74 -186 122 -67 34 -127 61 -133 61 -6 0 -45 17 -87
39 -154 79 -201 135 -202 241 0 85 15 118 73 157 58 40 138 51 227 33 108 -22
214 -120 259 -238 14 -37 26 -73 26 -80 0 -6 11 -12 25 -12 l25 0 0 185 0 185
-30 0 c-16 0 -31 -4 -31 -10 -1 -5 -2 -16 -3 -22 -2 -17 -15 -14 -106 18 -63
22 -96 27 -200 30 -69 2 -149 -1 -179 -7z"/>
<path d="M2670 1775 c0 -24 2 -25 70 -25 l70 0 0 -597 c0 -329 3 -608 6 -620
6 -22 4 -23 -65 -23 -69 0 -71 -1 -71 -25 l0 -25 515 0 515 0 4 22 c3 13 7 46
9 73 2 28 10 105 17 173 11 103 11 125 0 132 -17 11 -40 2 -40 -16 0 -7 -18
-52 -39 -99 -53 -115 -121 -184 -211 -213 -52 -18 -93 -23 -202 -25 l-137 -2
-3 300 c-1 187 1 300 7 300 71 -2 171 -21 201 -37 62 -33 108 -101 120 -177 5
-31 11 -41 25 -41 18 0 19 12 19 250 0 138 1 253 3 258 1 4 -8 8 -20 10 -20 3
-23 -1 -23 -33 0 -62 -34 -113 -93 -140 -48 -22 -220 -49 -239 -38 -5 2 -8
140 -8 305 l0 301 158 -5 c172 -6 226 -20 286 -76 34 -32 82 -128 91 -183 6
-33 10 -39 32 -39 l26 0 -7 128 c-4 70 -9 146 -12 170 l-6 42 -499 0 -499 0 0
-25z"/>
<path d="M7525 1650 c-38 -15 -98 -38 -132 -50 l-62 -22 -3 -102 -3 -101 -60
-5 c-53 -4 -60 -8 -63 -27 -3 -22 0 -23 61 -23 l64 0 7 -377 7 -378 27 -40
c79 -117 283 -126 412 -19 56 46 94 106 78 122 -7 7 -23 -3 -52 -34 -36 -37
-48 -44 -82 -44 -22 0 -50 7 -62 16 -50 35 -52 48 -52 414 l0 340 100 0 c100
0 100 0 100 25 0 24 -1 24 -101 27 l-101 3 1 147 c0 81 -3 149 -7 151 -4 3
-38 -8 -77 -23z"/>
<path d="M343 1503 l-223 -3 0 -95 0 -95 448 0 447 0 -2 92 c-1 51 -2 96 -3
101 0 7 -127 7 -667 0z"/>
<path d="M8210 1366 c-159 -47 -230 -110 -230 -205 0 -73 80 -124 159 -101 76
22 111 69 111 153 0 88 56 144 134 134 30 -4 48 -14 69 -38 27 -33 27 -34 27
-186 0 -91 -4 -154 -10 -158 -6 -4 -68 -11 -138 -16 -161 -12 -261 -43 -326
-100 -25 -23 -46 -47 -46 -54 0 -7 -6 -15 -12 -17 -9 -3 -13 -31 -13 -94 0
-99 14 -140 62 -186 37 -35 132 -68 197 -68 66 0 171 37 235 83 59 42 61 43
61 19 0 -51 82 -102 164 -102 71 1 160 33 223 81 57 44 59 49 41 67 -8 8 -18
6 -38 -8 -15 -11 -45 -22 -68 -26 -34 -5 -42 -3 -51 14 -7 14 -11 121 -11 315
0 313 -2 330 -52 400 -73 102 -306 147 -488 93z m270 -595 l0 -170 -35 -27
c-108 -82 -235 -1 -235 149 0 59 27 115 72 149 33 25 122 56 191 67 4 0 7 -75
7 -168z"/>
<path d="M9307 1368 c-242 -69 -370 -272 -339 -538 24 -204 138 -331 339 -381
131 -33 242 -18 351 46 70 40 96 69 137 149 30 57 30 57 10 72 -19 14 -21 12
-42 -32 -61 -131 -188 -191 -304 -141 -98 41 -168 147 -193 293 -20 113 -20
177 0 278 24 120 64 190 126 222 96 50 178 -31 178 -175 0 -62 3 -75 24 -96
13 -13 41 -28 63 -34 33 -9 46 -8 80 8 52 26 63 41 72 98 16 107 -55 187 -206
232 -88 26 -202 26 -296 -1z"/>
<path d="M4945 1363 c-30 -5 -48 -20 -39 -35 3 -4 34 -8 70 -8 l64 0 0 -325
c0 -296 2 -331 19 -380 32 -89 90 -144 186 -174 49 -15 160 -10 230 11 52 15
165 84 165 99 0 5 7 9 15 9 12 0 15 -13 15 -55 l0 -55 188 2 c182 3 187 4 190
24 3 18 -4 22 -35 27 -21 4 -51 7 -66 7 l-28 0 3 430 3 430 -145 0 c-80 0
-169 -3 -198 -7 -47 -5 -53 -8 -50 -27 3 -19 10 -21 63 -21 l60 0 3 -328 c3
-357 2 -358 -55 -411 -33 -31 -104 -56 -152 -55 -43 1 -87 25 -115 63 -20 27
-21 38 -21 407 l0 379 -170 -1 c-93 -1 -183 -4 -200 -6z"/>
<path d="M120 720 l0 -450 90 0 c64 0 92 4 95 13 2 6 5 209 7 450 l4 437 -98
0 -98 0 0 -450z"/>
<path d="M466 1161 c-3 -4 -4 -206 -3 -447 l2 -439 95 0 95 0 3 448 2 447 -94
0 c-52 0 -97 -4 -100 -9z"/>
<path d="M817 1164 c-4 -4 -7 -205 -7 -446 l0 -438 98 0 97 0 -2 443 -1 442
-89 3 c-49 1 -92 0 -96 -4z"/>
<path d="M1167 1153 c-4 -3 -7 -46 -7 -95 l0 -88 445 0 445 0 0 95 0 95 -438
0 c-241 0 -442 -3 -445 -7z"/>
<path d="M1162 718 l3 -93 443 -3 442 -3 0 96 0 95 -445 0 -446 0 3 -92z"/>
<path d="M1160 375 l0 -95 288 -1 c158 -1 356 -3 440 -5 l152 -3 0 100 0 99
-440 0 -440 0 0 -95z"/>
</g>
</svg>
